# xmcd
#
# Track frame offsets:
#	150
#	16925
#	34925
#	49100
#	63050
#	81876
#	97852
#	111728
#	128078
#	142028
#	158378
#	172254
#	182529
#
# Disc length: 2634 seconds
#
# Revision: 1
# Processed by: cddbd v1.5.2PL0 Copyright (c) Steve Scherf et al.
# Submitted via: audiograbber 1.83.01
#
DISCID=a60a480d
DTITLE=Barry Thornton - Country Dance
DYEAR=1993
DGENRE=Country
TTITLE0=(Gipsy Tap) Silver Bell, Winter Winds, Scotland The Brave (1993)
TTITLE1=(Varsovienna) Fred Holland's, Put Your Little Foot, La Va
TTITLE2=(Quick Step) Wagon Trains North, Carribbean, Those Old Bush Mates Of Mi
TTITLE2=ne
TTITLE3=(Three Step) With Me Shillelagh Under Me Arm, Scatterbrain, My Dreams A
TTITLE3=re GettingBetter All The Time(Foxtrot) Queen of Ice, It's A Sin To Tell
TTITLE3=A Lie, My Heart Is Where The Roper Flows Tonight
TTITLE4=(Foxtrot) Queen of Ice, It's A Sin To Tell A Lie, My Heart Is Where The
TTITLE4=Roper Flows Tonight
TTITLE5=(Barn Dance) Drover's Dream, Barn Dance Seranade, In An Old Dutch Garde
TTITLE5=n
TTITLE6=(Schottische) Click Go The Shears, Mudgee Schottische, Cock O' The Nort
TTITLE6=h
TTITLE7=(Old Time Waltz) June Rose Waltz, Mudgee Waltz, Greentrees Waltz
TTITLE8=Maxina: Side By Side - Little
TTITLE9=(Pride Of Erin) Come Back To Erin, After The Ball, When Irish Eyes Are 
TTITLE9=Smiling
TTITLE10=(Lancers) By The Eumerella Shore, Drinkers Of The Territory, Rose Of R
TTITLE10=ed River Valley
TTITLE11=(Irish Jig) Garryowen, Wandering Joe
TTITLE12=(Medley) Goodnight Sweetheart, Show Me The Way To Go Home, Now Is The 
TTITLE12=Hour
EXTD=
EXTT0=
EXTT1=
EXTT2=
EXTT3=
EXTT4=
EXTT5=
EXTT6=
EXTT7=
EXTT8=
EXTT9=
EXTT10=
EXTT11=
EXTT12=
PLAYORDER=
